<svg width="149" height="26" viewBox="0 0 149 26" fill="none" xmlns="http://www.w3.org/2000/svg">
<path d="M1.25648 13.9588C0.576802 13.9588 0.0254073 14.5427 0.223013 15.1931C0.969015 17.6481 3.42463 19.1822 6.87223 19.1822C10.9677 19.1822 13.6304 17.0598 13.6304 13.6665C13.6304 11.0738 12.1215 9.54875 8.30501 8.70995L6.2763 8.26513C3.77846 7.71865 2.80215 6.72734 2.80215 5.27851C2.80215 3.41029 4.56458 2.29189 6.84688 2.29189C8.78976 2.29189 10.202 3.11085 10.7677 4.50104C10.9957 5.06125 11.4787 5.53269 12.0835 5.53269C12.7492 5.53269 13.2971 4.97371 13.126 4.33036C12.4719 1.87079 10.0711 0.233032 6.91027 0.233032C3.11913 0.233032 0.456458 2.35544 0.456458 5.38019C0.456458 7.98554 2.04138 9.65042 5.70573 10.4511L7.73443 10.8959C10.2703 11.4551 11.2847 12.4718 11.2847 14.0096C11.2847 15.8143 9.48419 17.1233 6.99903 17.1233C4.84394 17.1233 3.2274 16.3179 2.57058 14.9392C2.3179 14.4088 1.84398 13.9588 1.25648 13.9588Z" fill="#0974D7"/>
<path d="M1.25648 13.9588C0.576802 13.9588 0.0254073 14.5427 0.223013 15.1931C0.969015 17.6481 3.42463 19.1822 6.87223 19.1822C10.9677 19.1822 13.6304 17.0598 13.6304 13.6665C13.6304 11.0738 12.1215 9.54875 8.30501 8.70995L6.2763 8.26513C3.77846 7.71865 2.80215 6.72734 2.80215 5.27851C2.80215 3.41029 4.56458 2.29189 6.84688 2.29189C8.78976 2.29189 10.202 3.11085 10.7677 4.50104C10.9957 5.06125 11.4787 5.53269 12.0835 5.53269C12.7492 5.53269 13.2971 4.97371 13.126 4.33036C12.4719 1.87079 10.0711 0.233032 6.91027 0.233032C3.11913 0.233032 0.456458 2.35544 0.456458 5.38019C0.456458 7.98554 2.04138 9.65042 5.70573 10.4511L7.73443 10.8959C10.2703 11.4551 11.2847 12.4718 11.2847 14.0096C11.2847 15.8143 9.48419 17.1233 6.99903 17.1233C4.84394 17.1233 3.2274 16.3179 2.57058 14.9392C2.3179 14.4088 1.84398 13.9588 1.25648 13.9588Z" fill="#0974D7"/>
<path d="M1.25648 13.9588C0.576802 13.9588 0.0254073 14.5427 0.223013 15.1931C0.969015 17.6481 3.42463 19.1822 6.87223 19.1822C10.9677 19.1822 13.6304 17.0598 13.6304 13.6665C13.6304 11.0738 12.1215 9.54875 8.30501 8.70995L6.2763 8.26513C3.77846 7.71865 2.80215 6.72734 2.80215 5.27851C2.80215 3.41029 4.56458 2.29189 6.84688 2.29189C8.78976 2.29189 10.202 3.11085 10.7677 4.50104C10.9957 5.06125 11.4787 5.53269 12.0835 5.53269C12.7492 5.53269 13.2971 4.97371 13.126 4.33036C12.4719 1.87079 10.0711 0.233032 6.91027 0.233032C3.11913 0.233032 0.456458 2.35544 0.456458 5.38019C0.456458 7.98554 2.04138 9.65042 5.70573 10.4511L7.73443 10.8959C10.2703 11.4551 11.2847 12.4718 11.2847 14.0096C11.2847 15.8143 9.48419 17.1233 6.99903 17.1233C4.84394 17.1233 3.2274 16.3179 2.57058 14.9392C2.3179 14.4088 1.84398 13.9588 1.25648 13.9588Z" fill="#29343D"/>
<path d="M21.2507 7.35009C23.3301 7.35009 24.7122 8.926 24.7629 11.1374H17.599C17.7385 8.93871 19.1839 7.35009 21.2507 7.35009ZM25.5539 15.0899C25.0547 15.0899 24.6345 15.4356 24.3511 15.8464C23.7847 16.6674 22.7482 17.1869 21.4409 17.1869C19.0698 17.1869 17.5863 15.522 17.5863 12.9929V12.8658H27.0452V12.027C27.0452 8.02366 24.8516 5.43102 21.2887 5.43102C17.6497 5.43102 15.3167 8.2143 15.3167 12.3193C15.3167 16.4752 17.6117 19.1059 21.3901 19.1059C23.7169 19.1059 25.6211 17.993 26.4663 16.3446C26.7833 15.7262 26.2488 15.0899 25.5539 15.0899Z" fill="#0974D7"/>
<path d="M21.2507 7.35009C23.3301 7.35009 24.7122 8.926 24.7629 11.1374H17.599C17.7385 8.93871 19.1839 7.35009 21.2507 7.35009ZM25.5539 15.0899C25.0547 15.0899 24.6345 15.4356 24.3511 15.8464C23.7847 16.6674 22.7482 17.1869 21.4409 17.1869C19.0698 17.1869 17.5863 15.522 17.5863 12.9929V12.8658H27.0452V12.027C27.0452 8.02366 24.8516 5.43102 21.2887 5.43102C17.6497 5.43102 15.3167 8.2143 15.3167 12.3193C15.3167 16.4752 17.6117 19.1059 21.3901 19.1059C23.7169 19.1059 25.6211 17.993 26.4663 16.3446C26.7833 15.7262 26.2488 15.0899 25.5539 15.0899Z" fill="#0974D7"/>
<path d="M21.2507 7.35009C23.3301 7.35009 24.7122 8.926 24.7629 11.1374H17.599C17.7385 8.93871 19.1839 7.35009 21.2507 7.35009ZM25.5539 15.0899C25.0547 15.0899 24.6345 15.4356 24.3511 15.8464C23.7847 16.6674 22.7482 17.1869 21.4409 17.1869C19.0698 17.1869 17.5863 15.522 17.5863 12.9929V12.8658H27.0452V12.027C27.0452 8.02366 24.8516 5.43102 21.2887 5.43102C17.6497 5.43102 15.3167 8.2143 15.3167 12.3193C15.3167 16.4752 17.6117 19.1059 21.3901 19.1059C23.7169 19.1059 25.6211 17.993 26.4663 16.3446C26.7833 15.7262 26.2488 15.0899 25.5539 15.0899Z" fill="#29343D"/>
<path d="M29.2767 17.7741C29.2767 18.3833 29.7706 18.8772 30.3798 18.8772C30.9891 18.8772 31.483 18.3833 31.483 17.7741L31.483 10.5909C31.483 8.76079 32.7509 7.38821 34.5006 7.38821C36.1363 7.38821 37.2014 8.43035 37.2014 10.019V17.7741C37.2014 18.3833 37.6952 18.8772 38.3045 18.8772C38.9137 18.8772 39.4076 18.3833 39.4076 17.7741V10.4765C39.4076 8.68453 40.6375 7.38821 42.3872 7.38821C44.1243 7.38821 45.126 8.45577 45.126 10.2605V17.7741C45.126 18.3833 45.6199 18.8772 46.2291 18.8772C46.8383 18.8772 47.3322 18.3833 47.3322 17.7741V9.75209C47.3322 7.13403 45.6458 5.43102 43.0339 5.43102C41.1827 5.43102 39.6358 6.37149 38.9004 7.94741H38.8497C38.2791 6.34607 36.9478 5.43102 35.1473 5.43102C33.3722 5.43102 32.0282 6.37149 31.4069 7.76948H31.3562V6.6995C31.3562 6.12528 30.8907 5.65979 30.3164 5.65979C29.7422 5.65979 29.2767 6.12528 29.2767 6.6995L29.2767 17.7741Z" fill="#0974D7"/>
<path d="M29.2767 17.7741C29.2767 18.3833 29.7706 18.8772 30.3798 18.8772C30.9891 18.8772 31.483 18.3833 31.483 17.7741L31.483 10.5909C31.483 8.76079 32.7509 7.38821 34.5006 7.38821C36.1363 7.38821 37.2014 8.43035 37.2014 10.019V17.7741C37.2014 18.3833 37.6952 18.8772 38.3045 18.8772C38.9137 18.8772 39.4076 18.3833 39.4076 17.7741V10.4765C39.4076 8.68453 40.6375 7.38821 42.3872 7.38821C44.1243 7.38821 45.126 8.45577 45.126 10.2605V17.7741C45.126 18.3833 45.6199 18.8772 46.2291 18.8772C46.8383 18.8772 47.3322 18.3833 47.3322 17.7741V9.75209C47.3322 7.13403 45.6458 5.43102 43.0339 5.43102C41.1827 5.43102 39.6358 6.37149 38.9004 7.94741H38.8497C38.2791 6.34607 36.9478 5.43102 35.1473 5.43102C33.3722 5.43102 32.0282 6.37149 31.4069 7.76948H31.3562V6.6995C31.3562 6.12528 30.8907 5.65979 30.3164 5.65979C29.7422 5.65979 29.2767 6.12528 29.2767 6.6995L29.2767 17.7741Z" fill="#0974D7"/>
<path d="M29.2767 17.7741C29.2767 18.3833 29.7706 18.8772 30.3798 18.8772C30.9891 18.8772 31.483 18.3833 31.483 17.7741L31.483 10.5909C31.483 8.76079 32.7509 7.38821 34.5006 7.38821C36.1363 7.38821 37.2014 8.43035 37.2014 10.019V17.7741C37.2014 18.3833 37.6952 18.8772 38.3045 18.8772C38.9137 18.8772 39.4076 18.3833 39.4076 17.7741V10.4765C39.4076 8.68453 40.6375 7.38821 42.3872 7.38821C44.1243 7.38821 45.126 8.45577 45.126 10.2605V17.7741C45.126 18.3833 45.6199 18.8772 46.2291 18.8772C46.8383 18.8772 47.3322 18.3833 47.3322 17.7741V9.75209C47.3322 7.13403 45.6458 5.43102 43.0339 5.43102C41.1827 5.43102 39.6358 6.37149 38.9004 7.94741H38.8497C38.2791 6.34607 36.9478 5.43102 35.1473 5.43102C33.3722 5.43102 32.0282 6.37149 31.4069 7.76948H31.3562V6.6995C31.3562 6.12528 30.8907 5.65979 30.3164 5.65979C29.7422 5.65979 29.2767 6.12528 29.2767 6.6995L29.2767 17.7741Z" fill="#29343D"/>
<path d="M55.5104 17.0344C53.2408 17.0344 51.7573 15.1788 51.7573 12.2176C51.7573 9.25644 53.2408 7.3755 55.5104 7.3755C57.8054 7.3755 59.3396 9.30727 59.3396 12.2176C59.3396 15.128 57.8054 17.0344 55.5104 17.0344ZM55.5865 23.8591C59.2255 23.8591 61.5458 21.7621 61.5458 18.6103V6.71218C61.5458 6.13096 61.0746 5.65979 60.4934 5.65979C59.9122 5.65979 59.441 6.13096 59.441 6.71218V7.88386H59.403C58.5281 6.34607 56.9812 5.43102 55.1174 5.43102C51.7066 5.43102 49.5004 8.0745 49.5004 12.2176C49.5004 16.3227 51.7066 18.9788 55.0666 18.9788C56.9178 18.9788 58.4774 18.0384 59.2889 16.6023H59.3396V18.6865C59.3396 20.6564 57.9575 21.9782 55.6752 21.9782C54.3931 21.9782 53.318 21.4937 52.7008 20.7102C52.3853 20.3097 51.9495 19.9701 51.4397 19.9701C50.6958 19.9701 50.125 20.6547 50.496 21.2994C51.3806 22.837 53.2938 23.8591 55.5865 23.8591Z" fill="#0974D7"/>
<path d="M55.5104 17.0344C53.2408 17.0344 51.7573 15.1788 51.7573 12.2176C51.7573 9.25644 53.2408 7.3755 55.5104 7.3755C57.8054 7.3755 59.3396 9.30727 59.3396 12.2176C59.3396 15.128 57.8054 17.0344 55.5104 17.0344ZM55.5865 23.8591C59.2255 23.8591 61.5458 21.7621 61.5458 18.6103V6.71218C61.5458 6.13096 61.0746 5.65979 60.4934 5.65979C59.9122 5.65979 59.441 6.13096 59.441 6.71218V7.88386H59.403C58.5281 6.34607 56.9812 5.43102 55.1174 5.43102C51.7066 5.43102 49.5004 8.0745 49.5004 12.2176C49.5004 16.3227 51.7066 18.9788 55.0666 18.9788C56.9178 18.9788 58.4774 18.0384 59.2889 16.6023H59.3396V18.6865C59.3396 20.6564 57.9575 21.9782 55.6752 21.9782C54.3931 21.9782 53.318 21.4937 52.7008 20.7102C52.3853 20.3097 51.9495 19.9701 51.4397 19.9701C50.6958 19.9701 50.125 20.6547 50.496 21.2994C51.3806 22.837 53.2938 23.8591 55.5865 23.8591Z" fill="#0974D7"/>
<path d="M55.5104 17.0344C53.2408 17.0344 51.7573 15.1788 51.7573 12.2176C51.7573 9.25644 53.2408 7.3755 55.5104 7.3755C57.8054 7.3755 59.3396 9.30727 59.3396 12.2176C59.3396 15.128 57.8054 17.0344 55.5104 17.0344ZM55.5865 23.8591C59.2255 23.8591 61.5458 21.7621 61.5458 18.6103V6.71218C61.5458 6.13096 61.0746 5.65979 60.4934 5.65979C59.9122 5.65979 59.441 6.13096 59.441 6.71218V7.88386H59.403C58.5281 6.34607 56.9812 5.43102 55.1174 5.43102C51.7066 5.43102 49.5004 8.0745 49.5004 12.2176C49.5004 16.3227 51.7066 18.9788 55.0666 18.9788C56.9178 18.9788 58.4774 18.0384 59.2889 16.6023H59.3396V18.6865C59.3396 20.6564 57.9575 21.9782 55.6752 21.9782C54.3931 21.9782 53.318 21.4937 52.7008 20.7102C52.3853 20.3097 51.9495 19.9701 51.4397 19.9701C50.6958 19.9701 50.125 20.6547 50.496 21.2994C51.3806 22.837 53.2938 23.8591 55.5865 23.8591Z" fill="#29343D"/>
<path d="M64.424 17.7741C64.424 18.3833 64.9179 18.8772 65.5271 18.8772C66.1364 18.8772 66.6302 18.3833 66.6302 17.7741V10.6417C66.6302 8.7735 67.746 7.54072 69.4578 7.54072C70.0374 7.54072 70.6369 7.05768 70.6369 6.47808V6.33419C70.6369 5.86696 70.2953 5.44241 69.8282 5.43192C69.8022 5.43133 69.7759 5.43102 69.7494 5.43102C68.2025 5.43102 66.9853 6.35878 66.5542 7.82032H66.5035V6.6995C66.5035 6.12528 66.038 5.65979 65.4637 5.65979C64.8895 5.65979 64.424 6.12528 64.424 6.6995V17.7741Z" fill="#0974D7"/>
<path d="M64.424 17.7741C64.424 18.3833 64.9179 18.8772 65.5271 18.8772C66.1364 18.8772 66.6302 18.3833 66.6302 17.7741V10.6417C66.6302 8.7735 67.746 7.54072 69.4578 7.54072C70.0374 7.54072 70.6369 7.05768 70.6369 6.47808V6.33419C70.6369 5.86696 70.2953 5.44241 69.8282 5.43192C69.8022 5.43133 69.7759 5.43102 69.7494 5.43102C68.2025 5.43102 66.9853 6.35878 66.5542 7.82032H66.5035V6.6995C66.5035 6.12528 66.038 5.65979 65.4637 5.65979C64.8895 5.65979 64.424 6.12528 64.424 6.6995V17.7741Z" fill="#0974D7"/>
<path d="M64.424 17.7741C64.424 18.3833 64.9179 18.8772 65.5271 18.8772C66.1364 18.8772 66.6302 18.3833 66.6302 17.7741V10.6417C66.6302 8.7735 67.746 7.54072 69.4578 7.54072C70.0374 7.54072 70.6369 7.05768 70.6369 6.47808V6.33419C70.6369 5.86696 70.2953 5.44241 69.8282 5.43192C69.8022 5.43133 69.7759 5.43102 69.7494 5.43102C68.2025 5.43102 66.9853 6.35878 66.5542 7.82032H66.5035V6.6995C66.5035 6.12528 66.038 5.65979 65.4637 5.65979C64.8895 5.65979 64.424 6.12528 64.424 6.6995V17.7741Z" fill="#29343D"/>
<path d="M77.0908 7.35009C79.1702 7.35009 80.5522 8.926 80.6029 11.1374H73.4391C73.5786 8.93871 75.024 7.35009 77.0908 7.35009ZM81.394 15.0899C80.8948 15.0899 80.4746 15.4356 80.1912 15.8464C79.6248 16.6674 78.5882 17.1869 77.2809 17.1869C74.9099 17.1869 73.4264 15.522 73.4264 12.9929V12.8658L82.8852 12.8658V12.027C82.8852 8.02366 80.6917 5.43102 77.1288 5.43102C73.4898 5.43102 71.1568 8.2143 71.1568 12.3193C71.1568 16.4752 73.4518 19.1059 77.2302 19.1059C79.557 19.1059 81.4611 17.993 82.3064 16.3446C82.6234 15.7262 82.0889 15.0899 81.394 15.0899Z" fill="#0974D7"/>
<path d="M77.0908 7.35009C79.1702 7.35009 80.5522 8.926 80.6029 11.1374H73.4391C73.5786 8.93871 75.024 7.35009 77.0908 7.35009ZM81.394 15.0899C80.8948 15.0899 80.4746 15.4356 80.1912 15.8464C79.6248 16.6674 78.5882 17.1869 77.2809 17.1869C74.9099 17.1869 73.4264 15.522 73.4264 12.9929V12.8658L82.8852 12.8658V12.027C82.8852 8.02366 80.6917 5.43102 77.1288 5.43102C73.4898 5.43102 71.1568 8.2143 71.1568 12.3193C71.1568 16.4752 73.4518 19.1059 77.2302 19.1059C79.557 19.1059 81.4611 17.993 82.3064 16.3446C82.6234 15.7262 82.0889 15.0899 81.394 15.0899Z" fill="#0974D7"/>
<path d="M77.0908 7.35009C79.1702 7.35009 80.5522 8.926 80.6029 11.1374H73.4391C73.5786 8.93871 75.024 7.35009 77.0908 7.35009ZM81.394 15.0899C80.8948 15.0899 80.4746 15.4356 80.1912 15.8464C79.6248 16.6674 78.5882 17.1869 77.2809 17.1869C74.9099 17.1869 73.4264 15.522 73.4264 12.9929V12.8658L82.8852 12.8658V12.027C82.8852 8.02366 80.6917 5.43102 77.1288 5.43102C73.4898 5.43102 71.1568 8.2143 71.1568 12.3193C71.1568 16.4752 73.4518 19.1059 77.2302 19.1059C79.557 19.1059 81.4611 17.993 82.3064 16.3446C82.6234 15.7262 82.0889 15.0899 81.394 15.0899Z" fill="#29343D"/>
<path d="M91.5199 5.43102C89.6053 5.43102 88.0711 6.40962 87.2596 7.89657H87.2089V6.70584C87.2089 6.12812 86.7406 5.65979 86.1629 5.65979C85.5851 5.65979 85.1168 6.12812 85.1168 6.70584V22.1841C85.1168 22.7933 85.6107 23.2872 86.2199 23.2872C86.8291 23.2872 87.323 22.7933 87.323 22.1841V16.7293H87.3737C88.1599 18.1782 89.6814 19.1059 91.5706 19.1059C94.8926 19.1059 97.1622 16.4116 97.1622 12.2685C97.1622 8.12534 94.88 5.43102 91.5199 5.43102ZM91.0888 17.1615C88.8319 17.1615 87.3103 15.217 87.3103 12.2685C87.3103 9.33269 88.8319 7.3755 91.0888 7.3755C93.4345 7.3755 94.9053 9.28186 94.9053 12.2685C94.9053 15.2678 93.4345 17.1615 91.0888 17.1615Z" fill="#0974D7"/>
<path d="M91.5199 5.43102C89.6053 5.43102 88.0711 6.40962 87.2596 7.89657H87.2089V6.70584C87.2089 6.12812 86.7406 5.65979 86.1629 5.65979C85.5851 5.65979 85.1168 6.12812 85.1168 6.70584V22.1841C85.1168 22.7933 85.6107 23.2872 86.2199 23.2872C86.8291 23.2872 87.323 22.7933 87.323 22.1841V16.7293H87.3737C88.1599 18.1782 89.6814 19.1059 91.5706 19.1059C94.8926 19.1059 97.1622 16.4116 97.1622 12.2685C97.1622 8.12534 94.88 5.43102 91.5199 5.43102ZM91.0888 17.1615C88.8319 17.1615 87.3103 15.217 87.3103 12.2685C87.3103 9.33269 88.8319 7.3755 91.0888 7.3755C93.4345 7.3755 94.9053 9.28186 94.9053 12.2685C94.9053 15.2678 93.4345 17.1615 91.0888 17.1615Z" fill="#0974D7"/>
<path d="M91.5199 5.43102C89.6053 5.43102 88.0711 6.40962 87.2596 7.89657H87.2089V6.70584C87.2089 6.12812 86.7406 5.65979 86.1629 5.65979C85.5851 5.65979 85.1168 6.12812 85.1168 6.70584V22.1841C85.1168 22.7933 85.6107 23.2872 86.2199 23.2872C86.8291 23.2872 87.323 22.7933 87.323 22.1841V16.7293H87.3737C88.1599 18.1782 89.6814 19.1059 91.5706 19.1059C94.8926 19.1059 97.1622 16.4116 97.1622 12.2685C97.1622 8.12534 94.88 5.43102 91.5199 5.43102ZM91.0888 17.1615C88.8319 17.1615 87.3103 15.217 87.3103 12.2685C87.3103 9.33269 88.8319 7.3755 91.0888 7.3755C93.4345 7.3755 94.9053 9.28186 94.9053 12.2685C94.9053 15.2678 93.4345 17.1615 91.0888 17.1615Z" fill="#29343D"/>
<g filter="url(#filter0_dd_6383_8622)">
<mask id="mask0_6383_8622" style="mask-type:alpha" maskUnits="userSpaceOnUse" x="101" y="4" width="45" height="18">
<path fill-rule="evenodd" clip-rule="evenodd" d="M109.485 4.23303C104.799 4.23303 101 8.03906 101 12.734C101 17.429 104.799 21.235 109.485 21.235C112.263 21.235 114.729 19.8977 116.277 17.8307C117.825 19.8977 120.291 21.235 123.069 21.235C125.842 21.235 128.304 19.9029 129.852 17.8426C131.401 19.9029 133.863 21.235 136.635 21.235C141.322 21.235 145.121 17.429 145.121 12.734C145.121 8.03906 141.322 4.23303 136.635 4.23303C133.863 4.23303 131.401 5.5652 129.852 7.62548C128.304 5.5652 125.842 4.23303 123.069 4.23303C120.291 4.23303 117.825 5.57033 116.277 7.63738C114.729 5.57033 112.263 4.23303 109.485 4.23303ZM104.394 12.734C104.394 15.551 106.674 17.8346 109.485 17.8346C112.297 17.8346 114.577 15.551 114.577 12.734C114.577 9.91705 112.297 7.63344 109.485 7.63344C106.674 7.63344 104.394 9.91705 104.394 12.734ZM131.551 12.9978C131.553 12.9102 131.555 12.8223 131.555 12.734C131.555 12.6458 131.553 12.5579 131.551 12.4703C131.688 9.77589 133.912 7.63344 136.635 7.63344C139.447 7.63344 141.727 9.91705 141.727 12.734C141.727 15.551 139.447 17.8346 136.635 17.8346C133.912 17.8346 131.688 15.6922 131.551 12.9978ZM128.154 12.4703C128.017 9.7759 125.793 7.63344 123.069 7.63344C120.257 7.63344 117.978 9.91705 117.978 12.734C117.978 15.551 120.257 17.8346 123.069 17.8346C125.793 17.8346 128.017 15.6922 128.154 12.9978C128.151 12.9102 128.15 12.8223 128.15 12.734C128.15 12.6458 128.151 12.5579 128.154 12.4703Z" fill="#1E961B"/>
</mask>
<g mask="url(#mask0_6383_8622)">
<g filter="url(#filter1_d_6383_8622)">
<path fill-rule="evenodd" clip-rule="evenodd" d="M104.394 12.734C104.394 15.551 106.674 17.8346 109.485 17.8346C112.297 17.8346 114.577 15.551 114.577 12.734C114.577 9.91705 112.297 7.63344 109.485 7.63344C106.674 7.63344 104.394 9.91705 104.394 12.734ZM109.485 4.23303C104.799 4.23303 101 8.03906 101 12.734C101 17.429 104.799 21.235 109.485 21.235C114.172 21.235 117.971 17.429 117.971 12.734C117.971 8.03906 114.172 4.23303 109.485 4.23303Z" fill="url(#paint0_linear_6383_8622)"/>
</g>
<path fill-rule="evenodd" clip-rule="evenodd" d="M131.544 12.734C131.544 15.551 133.824 17.8346 136.635 17.8346C139.447 17.8346 141.727 15.551 141.727 12.734C141.727 9.91705 139.447 7.63344 136.635 7.63344C133.824 7.63344 131.544 9.91705 131.544 12.734ZM136.635 4.23303C131.949 4.23303 128.15 8.03906 128.15 12.734C128.15 17.429 131.949 21.235 136.635 21.235C141.322 21.235 145.121 17.429 145.121 12.734C145.121 8.03906 141.322 4.23303 136.635 4.23303Z" fill="url(#paint1_linear_6383_8622)"/>
<path fill-rule="evenodd" clip-rule="evenodd" d="M117.978 12.734C117.978 15.551 120.257 17.8346 123.069 17.8346C125.881 17.8346 128.16 15.551 128.16 12.734C128.16 9.91705 125.881 7.63344 123.069 7.63344C120.257 7.63344 117.978 9.91705 117.978 12.734ZM123.069 4.23303C118.383 4.23303 114.583 8.03906 114.583 12.734C114.583 17.429 118.383 21.235 123.069 21.235C127.755 21.235 131.554 17.429 131.554 12.734C131.554 8.03906 127.755 4.23303 123.069 4.23303Z" fill="#00A674"/>
<path d="M123.059 17.8348C120.247 17.8348 117.967 15.5512 117.967 12.7343H117.971C117.971 8.03931 114.172 4.23328 109.486 4.23328C104.8 4.23328 101 8.03931 101 12.7343H104.395C104.395 9.9173 106.674 7.63368 109.486 7.63368C112.298 7.63368 114.577 9.91725 114.577 12.7342H114.573C114.573 17.4292 118.372 21.2352 123.059 21.2352C127.745 21.2352 131.544 17.4292 131.544 12.7343H131.544C131.544 9.9173 133.824 7.63368 136.636 7.63368C139.447 7.63368 141.727 9.9173 141.727 12.7343H145.121C145.121 8.03931 141.322 4.23328 136.636 4.23328C131.949 4.23328 128.15 8.03926 128.15 12.7342H128.15C128.15 15.5512 125.87 17.8348 123.059 17.8348Z" fill="#2ACFA6"/>
</g>
</g>
<defs>
<filter id="filter0_dd_6383_8622" x="98" y="2.23303" width="50.1245" height="23.0021" filterUnits="userSpaceOnUse" color-interpolation-filters="sRGB">
<feFlood flood-opacity="0" result="BackgroundImageFix"/>
<feColorMatrix in="SourceAlpha" type="matrix" values="0 0 0 0 0 0 0 0 0 0 0 0 0 0 0 0 0 0 127 0" result="hardAlpha"/>
<feOffset dy="1"/>
<feGaussianBlur stdDeviation="1"/>
<feColorMatrix type="matrix" values="0 0 0 0 0.0627451 0 0 0 0 0.0941176 0 0 0 0 0.156863 0 0 0 0.06 0"/>
<feBlend mode="normal" in2="BackgroundImageFix" result="effect1_dropShadow_6383_8622"/>
<feColorMatrix in="SourceAlpha" type="matrix" values="0 0 0 0 0 0 0 0 0 0 0 0 0 0 0 0 0 0 127 0" result="hardAlpha"/>
<feOffset dy="1"/>
<feGaussianBlur stdDeviation="1.5"/>
<feColorMatrix type="matrix" values="0 0 0 0 0.0627451 0 0 0 0 0.0941176 0 0 0 0 0.156863 0 0 0 0.1 0"/>
<feBlend mode="normal" in2="effect1_dropShadow_6383_8622" result="effect2_dropShadow_6383_8622"/>
<feBlend mode="normal" in="SourceGraphic" in2="effect2_dropShadow_6383_8622" result="shape"/>
</filter>
<filter id="filter1_d_6383_8622" x="-182.997" y="-137.766" width="300.968" height="301" filterUnits="userSpaceOnUse" color-interpolation-filters="sRGB">
<feFlood flood-opacity="0" result="BackgroundImageFix"/>
<feColorMatrix in="SourceAlpha" type="matrix" values="0 0 0 0 0 0 0 0 0 0 0 0 0 0 0 0 0 0 127 0" result="hardAlpha"/>
<feOffset dx="-141.999"/>
<feGaussianBlur stdDeviation="70.9994"/>
<feColorMatrix type="matrix" values="0 0 0 0 0 0 0 0 0 0 0 0 0 0 0 0 0 0 0.23 0"/>
<feBlend mode="normal" in2="BackgroundImageFix" result="effect1_dropShadow_6383_8622"/>
<feBlend mode="normal" in="SourceGraphic" in2="effect1_dropShadow_6383_8622" result="shape"/>
</filter>
<linearGradient id="paint0_linear_6383_8622" x1="105.481" y1="7.83558" x2="121.605" y2="14.7331" gradientUnits="userSpaceOnUse">
<stop offset="0.285554" stop-color="#2ACFA6"/>
<stop offset="0.572917" stop-color="#00A674"/>
</linearGradient>
<linearGradient id="paint1_linear_6383_8622" x1="144.362" y1="9.32931" x2="127.668" y2="15.8754" gradientUnits="userSpaceOnUse">
<stop offset="0.285554" stop-color="#2ACFA6"/>
<stop offset="0.762026" stop-color="#00A674"/>
</linearGradient>
</defs>
</svg>
