<svg width="467" height="76" viewBox="0 0 467 76" fill="none" xmlns="http://www.w3.org/2000/svg">
<path d="M4.04181 44.1528C1.85545 44.1528 0.0817299 46.0313 0.717384 48.1232C3.11711 56.0206 11.0163 60.9554 22.1065 60.9554C35.2807 60.9554 43.8459 54.128 43.8459 43.2125C43.8459 34.8725 38.9923 29.9667 26.7154 27.2684L20.1895 25.8375C12.1545 24.0796 9.01391 20.8908 9.01391 16.2302C9.01391 10.2205 14.6833 6.62292 22.0249 6.62292C28.2748 6.62292 32.8176 9.25734 34.6374 13.7293C35.3708 15.5313 36.9245 17.0479 38.8701 17.0479C41.0116 17.0479 42.7739 15.2497 42.2235 13.1802C40.1194 5.26831 32.3964 0 22.2289 0C10.0336 0 1.46833 6.82733 1.46833 16.5573C1.46833 24.9381 6.56669 30.2937 18.3541 32.8693L24.88 34.3002C33.0374 36.099 36.3003 39.3696 36.3003 44.3163C36.3003 50.1216 30.5086 54.3324 22.5144 54.3324C15.5819 54.3324 10.3819 51.7415 8.269 47.3065C7.45618 45.6003 5.9317 44.1528 4.04181 44.1528Z" fill="#F2F8FF"/>
<path d="M68.3588 22.894C75.0479 22.894 79.4937 27.9634 79.6568 35.0769H56.6122C57.0609 28.0043 61.7106 22.894 68.3588 22.894ZM82.2013 47.7913C80.5957 47.7913 79.244 48.9032 78.3322 50.2248C76.5103 52.8657 73.1759 54.5368 68.9706 54.5368C61.3435 54.5368 56.5714 49.1813 56.5714 41.0457V40.6369H86.9985V37.9387C86.9985 25.0608 79.9423 16.7208 68.4812 16.7208C56.7754 16.7208 49.2706 25.674 49.2706 38.879C49.2706 52.2474 56.653 60.7101 68.8075 60.7101C76.2922 60.7101 82.4174 57.13 85.1363 51.8273C86.1562 49.8382 84.4367 47.7913 82.2013 47.7913Z" fill="#F2F8FF"/>
<path d="M94.177 56.4257C94.177 58.3855 95.7657 59.9742 97.7254 59.9742C99.6852 59.9742 101.274 58.3855 101.274 56.4257V33.319C101.274 27.432 105.353 23.0167 110.981 23.0167C116.243 23.0167 119.669 26.369 119.669 31.4793V56.4257C119.669 58.3855 121.257 59.9742 123.217 59.9742C125.177 59.9742 126.766 58.3855 126.766 56.4257V32.951C126.766 27.1867 130.722 23.0167 136.351 23.0167C141.938 23.0167 145.161 26.4508 145.161 32.2561V56.4257C145.161 58.3855 146.749 59.9742 148.709 59.9742C150.669 59.9742 152.258 58.3855 152.258 56.4257V30.6208C152.258 22.199 146.833 16.7208 138.431 16.7208C132.476 16.7208 127.5 19.7461 125.134 24.8155H124.971C123.136 19.6643 118.853 16.7208 113.061 16.7208C107.351 16.7208 103.028 19.7461 101.029 24.2431H100.866V20.8012C100.866 18.9541 99.3686 17.4567 97.5215 17.4567C95.6744 17.4567 94.177 18.9541 94.177 20.8012V56.4257Z" fill="#F2F8FF"/>
<path d="M178.565 54.0463C171.264 54.0463 166.492 48.0775 166.492 38.5519C166.492 29.0264 171.264 22.9758 178.565 22.9758C185.947 22.9758 190.883 29.1899 190.883 38.5519C190.883 47.9139 185.947 54.0463 178.565 54.0463ZM178.81 76C190.516 76 197.98 69.2544 197.98 59.1157V20.842C197.98 18.9724 196.464 17.4567 194.594 17.4567C192.725 17.4567 191.209 18.9724 191.209 20.842V24.6111H191.087C188.272 19.6643 183.296 16.7208 177.301 16.7208C166.329 16.7208 159.232 25.2243 159.232 38.5519C159.232 51.7569 166.329 60.3012 177.138 60.3012C183.092 60.3012 188.109 57.276 190.72 52.6563H190.883V59.361C190.883 65.6977 186.437 69.9494 179.095 69.9494C174.971 69.9494 171.513 68.391 169.527 65.8706C168.512 64.5823 167.11 63.4901 165.47 63.4901C163.078 63.4901 161.241 65.692 162.435 67.7661C165.28 72.712 171.435 76 178.81 76Z" fill="#F2F8FF"/>
<path d="M207.238 56.4257C207.238 58.3855 208.827 59.9742 210.787 59.9742C212.746 59.9742 214.335 58.3855 214.335 56.4257V33.4825C214.335 27.4728 217.924 23.5073 223.431 23.5073C225.295 23.5073 227.224 21.9534 227.224 20.089V19.6261C227.224 18.1231 226.125 16.7574 224.622 16.7237C224.539 16.7218 224.454 16.7208 224.369 16.7208C219.393 16.7208 215.477 19.7052 214.09 24.4067H213.927V20.8012C213.927 18.9541 212.43 17.4567 210.583 17.4567C208.736 17.4567 207.238 18.9541 207.238 20.8012V56.4257Z" fill="#F2F8FF"/>
<path d="M247.984 22.894C254.673 22.894 259.119 27.9634 259.282 35.0769H236.238C236.686 28.0043 241.336 22.894 247.984 22.894ZM261.827 47.7913C260.221 47.7913 258.87 48.9032 257.958 50.2248C256.136 52.8657 252.801 54.5368 248.596 54.5368C240.969 54.5368 236.197 49.1813 236.197 41.0457V40.6369H266.624V37.9387C266.624 25.0608 259.568 16.7208 248.107 16.7208C236.401 16.7208 228.896 25.674 228.896 38.879C228.896 52.2474 236.279 60.7101 248.433 60.7101C255.918 60.7101 262.043 57.13 264.762 51.8273C265.782 49.8382 264.062 47.7913 261.827 47.7913Z" fill="#F2F8FF"/>
<path d="M294.4 16.7208C288.241 16.7208 283.306 19.8687 280.695 24.652H280.532V20.8216C280.532 18.9632 279.026 17.4567 277.167 17.4567C275.309 17.4567 273.802 18.9632 273.802 20.8216V70.6118C273.802 72.5716 275.391 74.1603 277.351 74.1603C279.311 74.1603 280.899 72.5716 280.899 70.6118V53.0651H281.063C283.591 57.7257 288.486 60.7101 294.563 60.7101C305.249 60.7101 312.55 52.043 312.55 38.7154C312.55 25.3878 305.208 16.7208 294.4 16.7208ZM293.013 54.4551C285.753 54.4551 280.859 48.2001 280.859 38.7154C280.859 29.2717 285.753 22.9758 293.013 22.9758C300.559 22.9758 305.29 29.1081 305.29 38.7154C305.29 48.3636 300.559 54.4551 293.013 54.4551Z" fill="#F2F8FF"/>
<mask id="mask0" mask-type="alpha" maskUnits="userSpaceOnUse" x="325" y="12" width="142" height="55">
<path fill-rule="evenodd" clip-rule="evenodd" d="M352.308 12C337.226 12 325 24.2485 325 39.3578C325 54.4671 337.226 66.7156 352.308 66.7156C361.247 66.7156 369.184 62.4119 374.165 55.7598C379.147 62.4119 387.083 66.7156 396.023 66.7156C404.946 66.7156 412.869 62.4284 417.852 55.7981C422.835 62.4284 430.758 66.7156 439.681 66.7156C454.762 66.7156 466.988 54.4671 466.988 39.3578C466.988 24.2485 454.762 12 439.681 12C430.758 12 422.835 16.2872 417.852 22.9175C412.869 16.2872 404.946 12 396.023 12C387.083 12 379.147 16.3037 374.165 22.9558C369.184 16.3037 361.247 12 352.308 12ZM335.923 39.3578C335.923 48.4234 343.259 55.7725 352.308 55.7725C361.357 55.7725 368.692 48.4234 368.692 39.3578C368.692 30.2922 361.357 22.9431 352.308 22.9431C343.259 22.9431 335.923 30.2922 335.923 39.3578ZM423.318 40.2065C423.326 39.9247 423.331 39.6417 423.331 39.3578C423.331 39.0739 423.326 38.7909 423.318 38.5091C423.759 29.8379 430.916 22.9431 439.681 22.9431C448.73 22.9431 456.065 30.2922 456.065 39.3578C456.065 48.4234 448.73 55.7725 439.681 55.7725C430.916 55.7725 423.759 48.8776 423.318 40.2065ZM412.386 38.5091C411.945 29.8379 404.788 22.9431 396.023 22.9431C386.974 22.9431 379.638 30.2922 379.638 39.3578C379.638 48.4234 386.974 55.7725 396.023 55.7725C404.788 55.7725 411.945 48.8776 412.386 40.2065C412.377 39.9247 412.373 39.6417 412.373 39.3578C412.373 39.0739 412.377 38.7909 412.386 38.5091Z" fill="#1E961B"/>
</mask>
<g mask="url(#mask0)">
<g filter="url(#filter0_d)">
<path fill-rule="evenodd" clip-rule="evenodd" d="M335.923 39.3578C335.923 48.4234 343.259 55.7725 352.308 55.7725C361.357 55.7725 368.692 48.4234 368.692 39.3578C368.692 30.2922 361.357 22.9431 352.308 22.9431C343.259 22.9431 335.923 30.2922 335.923 39.3578ZM352.308 12C337.226 12 325 24.2485 325 39.3578C325 54.4671 337.226 66.7156 352.308 66.7156C367.389 66.7156 379.615 54.4671 379.615 39.3578C379.615 24.2485 367.389 12 352.308 12Z" fill="url(#paint0_linear)"/>
</g>
<path fill-rule="evenodd" clip-rule="evenodd" d="M423.296 39.3578C423.296 48.4234 430.632 55.7725 439.681 55.7725C448.73 55.7725 456.065 48.4234 456.065 39.3578C456.065 30.2922 448.73 22.9431 439.681 22.9431C430.632 22.9431 423.296 30.2922 423.296 39.3578ZM439.681 12C424.599 12 412.373 24.2485 412.373 39.3578C412.373 54.4671 424.599 66.7156 439.681 66.7156C454.762 66.7156 466.988 54.4671 466.988 39.3578C466.988 24.2485 454.762 12 439.681 12Z" fill="url(#paint1_linear)"/>
<path fill-rule="evenodd" clip-rule="evenodd" d="M379.638 39.3578C379.638 48.4234 386.974 55.7725 396.023 55.7725C405.071 55.7725 412.407 48.4234 412.407 39.3578C412.407 30.2922 405.071 22.9431 396.023 22.9431C386.974 22.9431 379.638 30.2922 379.638 39.3578ZM396.023 12C380.941 12 368.715 24.2485 368.715 39.3578C368.715 54.4671 380.941 66.7156 396.023 66.7156C411.104 66.7156 423.33 54.4671 423.33 39.3578C423.33 24.2485 411.104 12 396.023 12Z" fill="#1E961B"/>
<path d="M395.99 55.7731C386.941 55.7731 379.606 48.4242 379.605 39.3588H379.618C379.618 24.2495 367.392 12.001 352.311 12.001C337.229 12.001 325.003 24.2495 325.003 39.3588H335.926C335.926 30.2932 343.262 22.9441 352.311 22.9441C361.359 22.9441 368.695 30.293 368.695 39.3585H368.682C368.682 54.4677 380.908 66.7162 395.99 66.7162C411.071 66.7162 423.297 54.4679 423.298 39.3588H423.299C423.299 30.2932 430.634 22.9441 439.683 22.9441C448.732 22.9441 456.068 30.2932 456.068 39.3588H466.991C466.991 24.2495 454.765 12.001 439.683 12.001C424.602 12.001 412.376 24.2493 412.376 39.3585H412.375C412.375 48.424 405.039 55.7731 395.99 55.7731Z" fill="#2ED02A"/>
</g>
<defs>
<filter id="filter0_d" x="317" y="8" width="62.6153" height="62.7156" filterUnits="userSpaceOnUse" color-interpolation-filters="sRGB">
<feFlood flood-opacity="0" result="BackgroundImageFix"/>
<feColorMatrix in="SourceAlpha" type="matrix" values="0 0 0 0 0 0 0 0 0 0 0 0 0 0 0 0 0 0 127 0"/>
<feOffset dx="-4"/>
<feGaussianBlur stdDeviation="2"/>
<feColorMatrix type="matrix" values="0 0 0 0 0 0 0 0 0 0 0 0 0 0 0 0 0 0 0.23 0"/>
<feBlend mode="normal" in2="BackgroundImageFix" result="effect1_dropShadow"/>
<feBlend mode="normal" in="SourceGraphic" in2="effect1_dropShadow" result="shape"/>
</filter>
<linearGradient id="paint0_linear" x1="339.421" y1="23.5936" x2="391.31" y2="45.7912" gradientUnits="userSpaceOnUse">
<stop offset="0.285554" stop-color="#2ED02A"/>
<stop offset="0.572917" stop-color="#1E961B"/>
</linearGradient>
<linearGradient id="paint1_linear" x1="464.548" y1="28.4008" x2="410.821" y2="49.4673" gradientUnits="userSpaceOnUse">
<stop offset="0.285554" stop-color="#2ED02A"/>
<stop offset="0.762026" stop-color="#1E961B"/>
</linearGradient>
</defs>
</svg>
