<svg width="467" height="80" viewBox="0 0 467 80" fill="none" xmlns="http://www.w3.org/2000/svg">
<mask id="mask0_44_177" style="mask-type:alpha" maskUnits="userSpaceOnUse" x="329" y="13" width="138" height="54">
<path fill-rule="evenodd" clip-rule="evenodd" d="M356.019 13.563C341.451 13.563 329.641 25.3827 329.641 39.9631C329.641 54.5434 341.451 66.3631 356.019 66.3631C364.654 66.3631 372.321 62.2101 377.132 55.7909C381.944 62.2101 389.611 66.3631 398.246 66.3631C406.865 66.3631 414.519 62.2261 419.332 55.8278C424.146 62.2261 431.799 66.3631 440.418 66.3631C454.986 66.3631 466.796 54.5434 466.796 39.9631C466.796 25.3827 454.986 13.563 440.418 13.563C431.799 13.563 424.146 17.7001 419.332 24.0983C414.519 17.7001 406.865 13.563 398.246 13.563C389.611 13.563 381.944 17.716 377.132 24.1353C372.321 17.716 364.654 13.563 356.019 13.563ZM340.192 39.9631C340.192 48.7113 347.278 55.8031 356.019 55.8031C364.76 55.8031 371.846 48.7113 371.846 39.9631C371.846 31.2148 364.76 24.123 356.019 24.123C347.278 24.123 340.192 31.2148 340.192 39.9631ZM424.612 40.7821C424.62 40.5101 424.624 40.2371 424.624 39.9631C424.624 39.6891 424.62 39.416 424.612 39.1441C425.038 30.7765 431.952 24.123 440.418 24.123C449.159 24.123 456.245 31.2148 456.245 39.9631C456.245 48.7113 449.159 55.8031 440.418 55.8031C431.952 55.8031 425.038 49.1497 424.612 40.7821ZM414.052 39.1441C413.626 30.7765 406.713 24.123 398.246 24.123C389.505 24.123 382.419 31.2149 382.419 39.9631C382.419 48.7113 389.505 55.8031 398.246 55.8031C406.713 55.8031 413.626 49.1497 414.052 40.7821C414.044 40.5101 414.04 40.2371 414.04 39.9631C414.04 39.6891 414.044 39.416 414.052 39.1441Z" fill="#1E961B"/>
</mask>
<g mask="url(#mask0_44_177)">
<g filter="url(#filter0_d_44_177)">
<path fill-rule="evenodd" clip-rule="evenodd" d="M340.192 39.9631C340.192 48.7113 347.278 55.8031 356.019 55.8031C364.76 55.8031 371.846 48.7113 371.846 39.9631C371.846 31.2149 364.76 24.123 356.019 24.123C347.278 24.123 340.192 31.2149 340.192 39.9631ZM356.019 13.563C341.451 13.563 329.641 25.3827 329.641 39.9631C329.641 54.5434 341.451 66.3631 356.019 66.3631C370.587 66.3631 382.397 54.5434 382.397 39.9631C382.397 25.3827 370.587 13.563 356.019 13.563Z" fill="url(#paint0_linear_44_177)"/>
</g>
<path fill-rule="evenodd" clip-rule="evenodd" d="M424.591 39.9631C424.591 48.7113 431.677 55.8031 440.418 55.8031C449.159 55.8031 456.245 48.7113 456.245 39.9631C456.245 31.2149 449.159 24.123 440.418 24.123C431.677 24.123 424.591 31.2149 424.591 39.9631ZM440.418 13.563C425.85 13.563 414.04 25.3827 414.04 39.9631C414.04 54.5434 425.85 66.3631 440.418 66.3631C454.987 66.3631 466.796 54.5434 466.796 39.9631C466.796 25.3827 454.987 13.563 440.418 13.563Z" fill="url(#paint1_linear_44_177)"/>
<path fill-rule="evenodd" clip-rule="evenodd" d="M382.419 39.9631C382.419 48.7113 389.505 55.8031 398.246 55.8031C406.987 55.8031 414.073 48.7113 414.073 39.9631C414.073 31.2149 406.987 24.123 398.246 24.123C389.505 24.123 382.419 31.2149 382.419 39.9631ZM398.246 13.563C383.678 13.563 371.868 25.3827 371.868 39.9631C371.868 54.5434 383.678 66.3631 398.246 66.3631C412.815 66.3631 424.625 54.5434 424.625 39.9631C424.625 25.3827 412.815 13.563 398.246 13.563Z" fill="#1E961B"/>
<path d="M398.214 55.8043C389.473 55.8043 382.387 48.7126 382.387 39.9645H382.399C382.399 25.3842 370.59 13.5645 356.021 13.5645C341.453 13.5645 329.643 25.3842 329.643 39.9645H340.194C340.194 31.2163 347.28 24.1245 356.021 24.1245C364.762 24.1245 371.848 31.2162 371.848 39.9642H371.836C371.836 54.5446 383.646 66.3643 398.214 66.3643C412.782 66.3643 424.592 54.5447 424.592 39.9645H424.593C424.593 31.2163 431.679 24.1245 440.42 24.1245C449.161 24.1245 456.247 31.2163 456.247 39.9645H466.798C466.798 25.3842 454.989 13.5645 440.42 13.5645C425.852 13.5645 414.042 25.384 414.042 39.9642H414.041C414.041 48.7124 406.955 55.8043 398.214 55.8043Z" fill="#F2F8FF"/>
<path d="M398.214 55.8043C389.473 55.8043 382.387 48.7126 382.387 39.9645H382.399C382.399 25.3842 370.59 13.5645 356.021 13.5645C341.453 13.5645 329.643 25.3842 329.643 39.9645H340.194C340.194 31.2163 347.28 24.1245 356.021 24.1245C364.762 24.1245 371.848 31.2162 371.848 39.9642H371.836C371.836 54.5446 383.646 66.3643 398.214 66.3643C412.782 66.3643 424.592 54.5447 424.592 39.9645H424.593C424.593 31.2163 431.679 24.1245 440.42 24.1245C449.161 24.1245 456.247 31.2163 456.247 39.9645H466.798C466.798 25.3842 454.989 13.5645 440.42 13.5645C425.852 13.5645 414.042 25.384 414.042 39.9642H414.041C414.041 48.7124 406.955 55.8043 398.214 55.8043Z" fill="#2ED02A"/>
</g>
<g filter="url(#filter1_d_44_177)">
<mask id="mask1_44_177" style="mask-type:alpha" maskUnits="userSpaceOnUse" x="0" y="0" width="314" height="77">
<path d="M4.05042 44.6033C1.85906 44.6033 0.081375 46.4848 0.710295 48.584C3.10582 56.5796 11.0331 61.5773 22.1684 61.5773C35.3794 61.5773 43.9686 54.6803 43.9686 43.6534C43.9686 35.2283 39.1014 30.2724 26.7902 27.5467L20.246 26.1012C12.1885 24.3253 9.03913 21.104 9.03913 16.3958C9.03913 10.3248 14.7244 6.69049 22.0866 6.69049C28.3633 6.69049 32.9231 9.35978 34.7426 13.8897C35.47 15.7007 37.029 17.2218 38.9807 17.2218V17.2218C41.1273 17.2218 42.8936 15.4203 42.3494 13.3438C40.2504 5.33501 32.4995 0 22.2911 0C10.0617 0 1.47244 6.89699 1.47244 16.7262C1.47244 25.1926 6.58507 30.6028 18.4055 33.2047L24.9496 34.6502C33.1298 36.4673 36.4019 39.7713 36.4019 44.7685C36.4019 50.633 30.594 54.8868 22.5774 54.8868C15.6163 54.8868 10.3972 52.2626 8.28378 47.7715C7.47638 46.0557 5.94669 44.6033 4.05042 44.6033V44.6033Z" fill="#0974D7"/>
<path d="M4.05042 44.6033C1.85906 44.6033 0.081375 46.4848 0.710295 48.584C3.10582 56.5796 11.0331 61.5773 22.1684 61.5773C35.3794 61.5773 43.9686 54.6803 43.9686 43.6534C43.9686 35.2283 39.1014 30.2724 26.7902 27.5467L20.246 26.1012C12.1885 24.3253 9.03913 21.104 9.03913 16.3958C9.03913 10.3248 14.7244 6.69049 22.0866 6.69049C28.3633 6.69049 32.9231 9.35978 34.7426 13.8897C35.47 15.7007 37.029 17.2218 38.9807 17.2218V17.2218C41.1273 17.2218 42.8936 15.4203 42.3494 13.3438C40.2504 5.33501 32.4995 0 22.2911 0C10.0617 0 1.47244 6.89699 1.47244 16.7262C1.47244 25.1926 6.58507 30.6028 18.4055 33.2047L24.9496 34.6502C33.1298 36.4673 36.4019 39.7713 36.4019 44.7685C36.4019 50.633 30.594 54.8868 22.5774 54.8868C15.6163 54.8868 10.3972 52.2626 8.28378 47.7715C7.47638 46.0557 5.94669 44.6033 4.05042 44.6033V44.6033Z" fill="#0974D7"/>
<path d="M4.05042 44.6033C1.85906 44.6033 0.081375 46.4848 0.710295 48.584C3.10582 56.5796 11.0331 61.5773 22.1684 61.5773C35.3794 61.5773 43.9686 54.6803 43.9686 43.6534C43.9686 35.2283 39.1014 30.2724 26.7902 27.5467L20.246 26.1012C12.1885 24.3253 9.03913 21.104 9.03913 16.3958C9.03913 10.3248 14.7244 6.69049 22.0866 6.69049C28.3633 6.69049 32.9231 9.35978 34.7426 13.8897C35.47 15.7007 37.029 17.2218 38.9807 17.2218V17.2218C41.1273 17.2218 42.8936 15.4203 42.3494 13.3438C40.2504 5.33501 32.4995 0 22.2911 0C10.0617 0 1.47244 6.89699 1.47244 16.7262C1.47244 25.1926 6.58507 30.6028 18.4055 33.2047L24.9496 34.6502C33.1298 36.4673 36.4019 39.7713 36.4019 44.7685C36.4019 50.633 30.594 54.8868 22.5774 54.8868C15.6163 54.8868 10.3972 52.2626 8.28378 47.7715C7.47638 46.0557 5.94669 44.6033 4.05042 44.6033V44.6033Z" fill="#29343D"/>
<path d="M68.5501 23.1276C75.2579 23.1276 79.7161 28.2488 79.8797 35.4348H56.7706C57.2206 28.2901 61.8833 23.1276 68.5501 23.1276ZM82.4368 48.2789C80.8241 48.2789 79.4671 49.3967 78.5576 50.7284C76.7318 53.4014 73.3854 55.0933 69.1637 55.0933C61.5152 55.0933 56.7297 49.6831 56.7297 41.4645V41.0516H87.2419V38.3258C87.2419 25.3165 80.166 16.8914 68.6728 16.8914C56.9342 16.8914 49.4085 25.936 49.4085 39.2757C49.4085 52.7806 56.8115 61.3295 69.0001 61.3295C76.5197 61.3295 82.671 57.6994 85.3898 52.3261C86.401 50.3277 84.6765 48.2789 82.4368 48.2789V48.2789Z" fill="#0974D7"/>
<path d="M68.5501 23.1276C75.2579 23.1276 79.7161 28.2488 79.8797 35.4348H56.7706C57.2206 28.2901 61.8833 23.1276 68.5501 23.1276ZM82.4368 48.2789C80.8241 48.2789 79.4671 49.3967 78.5576 50.7284C76.7318 53.4014 73.3854 55.0933 69.1637 55.0933C61.5152 55.0933 56.7297 49.6831 56.7297 41.4645V41.0516H87.2419V38.3258C87.2419 25.3165 80.166 16.8914 68.6728 16.8914C56.9342 16.8914 49.4085 25.936 49.4085 39.2757C49.4085 52.7806 56.8115 61.3295 69.0001 61.3295C76.5197 61.3295 82.671 57.6994 85.3898 52.3261C86.401 50.3277 84.6765 48.2789 82.4368 48.2789V48.2789Z" fill="#0974D7"/>
<path d="M68.5501 23.1276C75.2579 23.1276 79.7161 28.2488 79.8797 35.4348H56.7706C57.2206 28.2901 61.8833 23.1276 68.5501 23.1276ZM82.4368 48.2789C80.8241 48.2789 79.4671 49.3967 78.5576 50.7284C76.7318 53.4014 73.3854 55.0933 69.1637 55.0933C61.5152 55.0933 56.7297 49.6831 56.7297 41.4645V41.0516H87.2419V38.3258C87.2419 25.3165 80.166 16.8914 68.6728 16.8914C56.9342 16.8914 49.4085 25.936 49.4085 39.2757C49.4085 52.7806 56.8115 61.3295 69.0001 61.3295C76.5197 61.3295 82.671 57.6994 85.3898 52.3261C86.401 50.3277 84.6765 48.2789 82.4368 48.2789V48.2789Z" fill="#29343D"/>
<path d="M94.4405 57.0278C94.4405 58.993 96.0336 60.5861 97.9989 60.5861V60.5861C99.9641 60.5861 101.557 58.993 101.557 57.0278V33.659C101.557 27.7119 105.647 23.2515 111.292 23.2515C116.568 23.2515 120.004 26.6381 120.004 31.8005V57.0278C120.004 58.993 121.597 60.5861 123.562 60.5861V60.5861C125.527 60.5861 127.12 58.993 127.12 57.0278V33.2873C127.12 27.4641 131.088 23.2515 136.732 23.2515C142.336 23.2515 145.567 26.7207 145.567 32.5852V57.0278C145.567 58.993 147.16 60.5861 149.125 60.5861V60.5861C151.09 60.5861 152.684 58.993 152.684 57.0278V30.9332C152.684 22.4255 147.244 16.8914 138.818 16.8914C132.847 16.8914 127.857 19.9476 125.484 25.0687H125.321C123.48 19.865 119.186 16.8914 113.378 16.8914C107.652 16.8914 103.316 19.9476 101.312 24.4905H101.148V20.9887C101.148 19.1364 99.6467 17.6348 97.7944 17.6348V17.6348C95.9421 17.6348 94.4405 19.1364 94.4405 20.9887V57.0278Z" fill="#0974D7"/>
<path d="M94.4405 57.0278C94.4405 58.993 96.0336 60.5861 97.9989 60.5861V60.5861C99.9641 60.5861 101.557 58.993 101.557 57.0278V33.659C101.557 27.7119 105.647 23.2515 111.292 23.2515C116.568 23.2515 120.004 26.6381 120.004 31.8005V57.0278C120.004 58.993 121.597 60.5861 123.562 60.5861V60.5861C125.527 60.5861 127.12 58.993 127.12 57.0278V33.2873C127.12 27.4641 131.088 23.2515 136.732 23.2515C142.336 23.2515 145.567 26.7207 145.567 32.5852V57.0278C145.567 58.993 147.16 60.5861 149.125 60.5861V60.5861C151.09 60.5861 152.684 58.993 152.684 57.0278V30.9332C152.684 22.4255 147.244 16.8914 138.818 16.8914C132.847 16.8914 127.857 19.9476 125.484 25.0687H125.321C123.48 19.865 119.186 16.8914 113.378 16.8914C107.652 16.8914 103.316 19.9476 101.312 24.4905H101.148V20.9887C101.148 19.1364 99.6467 17.6348 97.7944 17.6348V17.6348C95.9421 17.6348 94.4405 19.1364 94.4405 20.9887V57.0278Z" fill="#0974D7"/>
<path d="M94.4405 57.0278C94.4405 58.993 96.0336 60.5861 97.9989 60.5861V60.5861C99.9641 60.5861 101.557 58.993 101.557 57.0278V33.659C101.557 27.7119 105.647 23.2515 111.292 23.2515C116.568 23.2515 120.004 26.6381 120.004 31.8005V57.0278C120.004 58.993 121.597 60.5861 123.562 60.5861V60.5861C125.527 60.5861 127.12 58.993 127.12 57.0278V33.2873C127.12 27.4641 131.088 23.2515 136.732 23.2515C142.336 23.2515 145.567 26.7207 145.567 32.5852V57.0278C145.567 58.993 147.16 60.5861 149.125 60.5861V60.5861C151.09 60.5861 152.684 58.993 152.684 57.0278V30.9332C152.684 22.4255 147.244 16.8914 138.818 16.8914C132.847 16.8914 127.857 19.9476 125.484 25.0687H125.321C123.48 19.865 119.186 16.8914 113.378 16.8914C107.652 16.8914 103.316 19.9476 101.312 24.4905H101.148V20.9887C101.148 19.1364 99.6467 17.6348 97.7944 17.6348V17.6348C95.9421 17.6348 94.4405 19.1364 94.4405 20.9887V57.0278Z" fill="#29343D"/>
<path d="M179.065 54.5977C171.743 54.5977 166.958 48.568 166.958 38.9453C166.958 29.3225 171.743 23.2102 179.065 23.2102C186.468 23.2102 191.417 29.4877 191.417 38.9453C191.417 48.4028 186.468 54.5977 179.065 54.5977ZM179.31 76.7755C191.049 76.7755 198.534 69.9611 198.534 59.7189V21.0296C198.534 19.1547 197.014 17.6348 195.139 17.6348V17.6348C193.264 17.6348 191.744 19.1547 191.744 21.0296V24.8622H191.621C188.799 19.865 183.809 16.8914 177.797 16.8914C166.794 16.8914 159.678 25.4817 159.678 38.9453C159.678 52.285 166.794 60.9165 177.633 60.9165C183.605 60.9165 188.636 57.8604 191.253 53.1936H191.417V59.9667C191.417 66.3681 186.959 70.6632 179.596 70.6632C175.456 70.6632 171.986 69.0859 169.996 66.5355C168.982 65.2366 167.575 64.1379 165.927 64.1379V64.1379C163.53 64.1379 161.688 66.3414 162.872 68.4263C165.717 73.4401 171.899 76.7755 179.31 76.7755Z" fill="#0974D7"/>
<path d="M179.065 54.5977C171.743 54.5977 166.958 48.568 166.958 38.9453C166.958 29.3225 171.743 23.2102 179.065 23.2102C186.468 23.2102 191.417 29.4877 191.417 38.9453C191.417 48.4028 186.468 54.5977 179.065 54.5977ZM179.31 76.7755C191.049 76.7755 198.534 69.9611 198.534 59.7189V21.0296C198.534 19.1547 197.014 17.6348 195.139 17.6348V17.6348C193.264 17.6348 191.744 19.1547 191.744 21.0296V24.8622H191.621C188.799 19.865 183.809 16.8914 177.797 16.8914C166.794 16.8914 159.678 25.4817 159.678 38.9453C159.678 52.285 166.794 60.9165 177.633 60.9165C183.605 60.9165 188.636 57.8604 191.253 53.1936H191.417V59.9667C191.417 66.3681 186.959 70.6632 179.596 70.6632C175.456 70.6632 171.986 69.0859 169.996 66.5355C168.982 65.2366 167.575 64.1379 165.927 64.1379V64.1379C163.53 64.1379 161.688 66.3414 162.872 68.4263C165.717 73.4401 171.899 76.7755 179.31 76.7755Z" fill="#0974D7"/>
<path d="M179.065 54.5977C171.743 54.5977 166.958 48.568 166.958 38.9453C166.958 29.3225 171.743 23.2102 179.065 23.2102C186.468 23.2102 191.417 29.4877 191.417 38.9453C191.417 48.4028 186.468 54.5977 179.065 54.5977ZM179.31 76.7755C191.049 76.7755 198.534 69.9611 198.534 59.7189V21.0296C198.534 19.1547 197.014 17.6348 195.139 17.6348V17.6348C193.264 17.6348 191.744 19.1547 191.744 21.0296V24.8622H191.621C188.799 19.865 183.809 16.8914 177.797 16.8914C166.794 16.8914 159.678 25.4817 159.678 38.9453C159.678 52.285 166.794 60.9165 177.633 60.9165C183.605 60.9165 188.636 57.8604 191.253 53.1936H191.417V59.9667C191.417 66.3681 186.959 70.6632 179.596 70.6632C175.456 70.6632 171.986 69.0859 169.996 66.5355C168.982 65.2366 167.575 64.1379 165.927 64.1379V64.1379C163.53 64.1379 161.688 66.3414 162.872 68.4263C165.717 73.4401 171.899 76.7755 179.31 76.7755Z" fill="#29343D"/>
<path d="M207.818 57.0277C207.818 58.993 209.411 60.5861 211.377 60.5861V60.5861C213.342 60.5861 214.935 58.993 214.935 57.0277V33.8242C214.935 27.7532 218.534 23.7471 224.056 23.7471V23.7471C225.924 23.7471 227.86 22.1898 227.86 20.3218V19.8206C227.86 18.3052 226.753 16.9266 225.238 16.894C225.158 16.8923 225.078 16.8914 224.997 16.8914C220.007 16.8914 216.08 19.9063 214.69 24.6557H214.526V20.9887C214.526 19.1364 213.024 17.6348 211.172 17.6348V17.6348C209.32 17.6348 207.818 19.1364 207.818 20.9887V57.0277Z" fill="#0974D7"/>
<path d="M207.818 57.0277C207.818 58.993 209.411 60.5861 211.377 60.5861V60.5861C213.342 60.5861 214.935 58.993 214.935 57.0277V33.8242C214.935 27.7532 218.534 23.7471 224.056 23.7471V23.7471C225.924 23.7471 227.86 22.1898 227.86 20.3218V19.8206C227.86 18.3052 226.753 16.9266 225.238 16.894C225.158 16.8923 225.078 16.8914 224.997 16.8914C220.007 16.8914 216.08 19.9063 214.69 24.6557H214.526V20.9887C214.526 19.1364 213.024 17.6348 211.172 17.6348V17.6348C209.32 17.6348 207.818 19.1364 207.818 20.9887V57.0277Z" fill="#0974D7"/>
<path d="M207.818 57.0277C207.818 58.993 209.411 60.5861 211.377 60.5861V60.5861C213.342 60.5861 214.935 58.993 214.935 57.0277V33.8242C214.935 27.7532 218.534 23.7471 224.056 23.7471V23.7471C225.924 23.7471 227.86 22.1898 227.86 20.3218V19.8206C227.86 18.3052 226.753 16.9266 225.238 16.894C225.158 16.8923 225.078 16.8914 224.997 16.8914C220.007 16.8914 216.08 19.9063 214.69 24.6557H214.526V20.9887C214.526 19.1364 213.024 17.6348 211.172 17.6348V17.6348C209.32 17.6348 207.818 19.1364 207.818 20.9887V57.0277Z" fill="#29343D"/>
<path d="M248.678 23.1276C255.386 23.1276 259.844 28.2488 260.008 35.4348H236.899C237.349 28.2901 242.011 23.1276 248.678 23.1276ZM262.565 48.2789C260.952 48.2789 259.595 49.3967 258.686 50.7284C256.86 53.4014 253.514 55.0933 249.292 55.0933C241.643 55.0933 236.858 49.6831 236.858 41.4645V41.0516H267.37V38.3258C267.37 25.3165 260.294 16.8914 248.801 16.8914C237.062 16.8914 229.537 25.936 229.537 39.2757C229.537 52.7806 236.94 61.3295 249.128 61.3295C256.648 61.3295 262.799 57.6994 265.518 52.3261C266.529 50.3277 264.805 48.2789 262.565 48.2789V48.2789Z" fill="#0974D7"/>
<path d="M248.678 23.1276C255.386 23.1276 259.844 28.2488 260.008 35.4348H236.899C237.349 28.2901 242.011 23.1276 248.678 23.1276ZM262.565 48.2789C260.952 48.2789 259.595 49.3967 258.686 50.7284C256.86 53.4014 253.514 55.0933 249.292 55.0933C241.643 55.0933 236.858 49.6831 236.858 41.4645V41.0516H267.37V38.3258C267.37 25.3165 260.294 16.8914 248.801 16.8914C237.062 16.8914 229.537 25.936 229.537 39.2757C229.537 52.7806 236.94 61.3295 249.128 61.3295C256.648 61.3295 262.799 57.6994 265.518 52.3261C266.529 50.3277 264.805 48.2789 262.565 48.2789V48.2789Z" fill="#0974D7"/>
<path d="M248.678 23.1276C255.386 23.1276 259.844 28.2488 260.008 35.4348H236.899C237.349 28.2901 242.011 23.1276 248.678 23.1276ZM262.565 48.2789C260.952 48.2789 259.595 49.3967 258.686 50.7284C256.86 53.4014 253.514 55.0933 249.292 55.0933C241.643 55.0933 236.858 49.6831 236.858 41.4645V41.0516H267.37V38.3258C267.37 25.3165 260.294 16.8914 248.801 16.8914C237.062 16.8914 229.537 25.936 229.537 39.2757C229.537 52.7806 236.94 61.3295 249.128 61.3295C256.648 61.3295 262.799 57.6994 265.518 52.3261C266.529 50.3277 264.805 48.2789 262.565 48.2789V48.2789Z" fill="#29343D"/>
<path d="M295.224 16.8914C289.048 16.8914 284.099 20.0715 281.481 24.9035H281.317V21.0092C281.317 19.1456 279.807 17.6348 277.943 17.6348V17.6348C276.079 17.6348 274.569 19.1456 274.569 21.0092V71.3586C274.569 73.3239 276.162 74.917 278.127 74.917V74.917C280.092 74.917 281.685 73.3239 281.685 71.3586V53.6066H281.849C284.385 58.3147 289.293 61.3295 295.387 61.3295C306.103 61.3295 313.425 52.5741 313.425 39.1105C313.425 25.6469 306.062 16.8914 295.224 16.8914ZM293.833 55.0107C286.553 55.0107 281.645 48.6919 281.645 39.1105C281.645 29.5703 286.553 23.2102 293.833 23.2102C301.4 23.2102 306.144 29.4051 306.144 39.1105C306.144 48.8571 301.4 55.0107 293.833 55.0107Z" fill="#0974D7"/>
<path d="M295.224 16.8914C289.048 16.8914 284.099 20.0715 281.481 24.9035H281.317V21.0092C281.317 19.1456 279.807 17.6348 277.943 17.6348V17.6348C276.079 17.6348 274.569 19.1456 274.569 21.0092V71.3586C274.569 73.3239 276.162 74.917 278.127 74.917V74.917C280.092 74.917 281.685 73.3239 281.685 71.3586V53.6066H281.849C284.385 58.3147 289.293 61.3295 295.387 61.3295C306.103 61.3295 313.425 52.5741 313.425 39.1105C313.425 25.6469 306.062 16.8914 295.224 16.8914ZM293.833 55.0107C286.553 55.0107 281.645 48.6919 281.645 39.1105C281.645 29.5703 286.553 23.2102 293.833 23.2102C301.4 23.2102 306.144 29.4051 306.144 39.1105C306.144 48.8571 301.4 55.0107 293.833 55.0107Z" fill="#0974D7"/>
<path d="M295.224 16.8914C289.048 16.8914 284.099 20.0715 281.481 24.9035H281.317V21.0092C281.317 19.1456 279.807 17.6348 277.943 17.6348V17.6348C276.079 17.6348 274.569 19.1456 274.569 21.0092V71.3586C274.569 73.3239 276.162 74.917 278.127 74.917V74.917C280.092 74.917 281.685 73.3239 281.685 71.3586V53.6066H281.849C284.385 58.3147 289.293 61.3295 295.387 61.3295C306.103 61.3295 313.425 52.5741 313.425 39.1105C313.425 25.6469 306.062 16.8914 295.224 16.8914ZM293.833 55.0107C286.553 55.0107 281.645 48.6919 281.645 39.1105C281.645 29.5703 286.553 23.2102 293.833 23.2102C301.4 23.2102 306.144 29.4051 306.144 39.1105C306.144 48.8571 301.4 55.0107 293.833 55.0107Z" fill="#29343D"/>
</mask>
<g mask="url(#mask1_44_177)">
<g filter="url(#filter2_f_44_177)">
<path d="M37.4066 -50.147C52.141 -40.5534 40.0102 0.692958 10.3116 41.9792C-19.387 83.2655 -55.407 108.957 -70.1414 99.3638C-84.8759 89.7702 -72.745 48.524 -43.0464 7.23769C-13.3479 -34.0486 22.6722 -59.7406 37.4066 -50.147Z" fill="#ED1B24"/>
<path d="M181.863 -34.751C196.597 -25.1574 214.367 12.6554 184.668 53.9416C154.97 95.2279 118.95 120.92 104.215 111.326C89.4807 101.733 92.5156 56.0007 122.214 14.7145C151.913 -26.5718 167.128 -44.3446 181.863 -34.751Z" fill="#2ED02A"/>
<path d="M87.036 -45.0147C101.77 -35.4211 141.51 12.5069 111.811 53.7932C82.1127 95.0794 29.0481 119.4 14.3137 109.806C-0.420713 100.213 11.7101 58.9665 41.4087 17.6802C71.1072 -23.6061 72.3016 -54.6083 87.036 -45.0147Z" fill="#FFCD50"/>
<path d="M256.135 -32.7556C270.87 -23.162 258.739 18.0842 229.04 59.3705C199.342 100.657 163.322 126.349 148.587 116.755C133.853 107.162 148.789 67.8256 178.488 26.5394C208.187 -14.7469 241.401 -42.3493 256.135 -32.7556Z" fill="#1D75BD"/>
<path d="M336.588 -24.7002C351.323 -15.1066 342.555 26.1397 312.856 67.426C283.158 108.712 243.775 134.404 229.04 124.811C214.306 115.217 210.295 61.5188 239.994 20.2325C269.692 -21.0537 321.854 -34.2938 336.588 -24.7002Z" fill="#9465AB"/>
<path d="M78.0133 -44.8376C92.7477 -35.244 80.6169 6.00232 50.9183 47.2886C21.2197 88.5749 -14.8003 114.267 -29.5347 104.673C-44.2691 95.0796 -32.1383 53.8333 -2.4397 12.547C27.2589 -28.7392 63.2788 -54.4313 78.0133 -44.8376Z" fill="#FE653B"/>
</g>
</g>
</g>
<defs>
<filter id="filter0_d_44_177" x="327.837" y="12.6611" width="54.5602" height="54.6041" filterUnits="userSpaceOnUse" color-interpolation-filters="sRGB">
<feFlood flood-opacity="0" result="BackgroundImageFix"/>
<feColorMatrix in="SourceAlpha" type="matrix" values="0 0 0 0 0 0 0 0 0 0 0 0 0 0 0 0 0 0 127 0" result="hardAlpha"/>
<feOffset dx="-0.901917"/>
<feGaussianBlur stdDeviation="0.450958"/>
<feColorMatrix type="matrix" values="0 0 0 0 0 0 0 0 0 0 0 0 0 0 0 0 0 0 0.23 0"/>
<feBlend mode="normal" in2="BackgroundImageFix" result="effect1_dropShadow_44_177"/>
<feBlend mode="normal" in="SourceGraphic" in2="effect1_dropShadow_44_177" result="shape"/>
</filter>
<filter id="filter1_d_44_177" x="0.582031" y="0" width="314.642" height="78.5741" filterUnits="userSpaceOnUse" color-interpolation-filters="sRGB">
<feFlood flood-opacity="0" result="BackgroundImageFix"/>
<feColorMatrix in="SourceAlpha" type="matrix" values="0 0 0 0 0 0 0 0 0 0 0 0 0 0 0 0 0 0 127 0" result="hardAlpha"/>
<feOffset dx="0.899373" dy="0.899373"/>
<feGaussianBlur stdDeviation="0.449686"/>
<feComposite in2="hardAlpha" operator="out"/>
<feColorMatrix type="matrix" values="0 0 0 0 0.358333 0 0 0 0 0.318021 0 0 0 0 0.318021 0 0 0 0.25 0"/>
<feBlend mode="normal" in2="BackgroundImageFix" result="effect1_dropShadow_44_177"/>
<feBlend mode="normal" in="SourceGraphic" in2="effect1_dropShadow_44_177" result="shape"/>
</filter>
<filter id="filter2_f_44_177" x="-130.372" y="-106.118" width="527.932" height="286.9" filterUnits="userSpaceOnUse" color-interpolation-filters="sRGB">
<feFlood flood-opacity="0" result="BackgroundImageFix"/>
<feBlend mode="normal" in="SourceGraphic" in2="BackgroundImageFix" result="shape"/>
<feGaussianBlur stdDeviation="26.9812" result="effect1_foregroundBlur_44_177"/>
</filter>
<linearGradient id="paint0_linear_44_177" x1="343.571" y1="24.7508" x2="393.678" y2="46.2077" gradientUnits="userSpaceOnUse">
<stop offset="0.285554" stop-color="#2ED02A"/>
<stop offset="0.572917" stop-color="#1E961B"/>
</linearGradient>
<linearGradient id="paint1_linear_44_177" x1="464.439" y1="29.3896" x2="412.555" y2="49.7541" gradientUnits="userSpaceOnUse">
<stop offset="0.285554" stop-color="#2ED02A"/>
<stop offset="0.762026" stop-color="#1E961B"/>
</linearGradient>
</defs>
</svg>
