<svg xmlns="http://www.w3.org/2000/svg" width="512" height="512" viewBox="0 0 512 512" fill="none">
<path d="M412 151.864C467.228 151.864 512 198.487 512 256C512 313.512 467.228 360.136 412 360.136C356.772 360.136 312 313.512 312 256C312.001 232.304 319.763 209.316 334.004 190.834C339.799 197.771 341.895 201.879 348 212.263H351.5C348.408 204.311 343.861 196.575 337.736 186.27C356.697 164.37 383.684 151.867 412 151.864ZM412 197.684C381.072 197.684 356 223.793 356 256C356 288.207 381.072 314.316 412 314.316C442.928 314.316 468 288.207 468 256C468 223.793 442.928 197.684 412 197.684Z" fill="#13BF95"/>
<path d="M256 151.864C200.772 151.864 156 198.488 156 256C156.008 279.683 163.768 302.655 178 321.127C178.042 321.073 178.07 321.031 178.111 320.977C178.124 320.993 178.136 321.01 178.148 321.026C179.109 319.769 180.032 318.482 180.936 317.18C185.133 311.457 188.036 306.658 190.863 299.395C191.117 298.816 191.375 298.239 191.619 297.654H195C194.276 300.765 193.26 303.815 192.006 306.906C189.211 313.149 185.736 319.797 182.205 325.765C182.148 325.861 182.104 325.945 182.047 326.041C200.988 347.743 227.839 360.122 256 360.136C284.161 360.122 311.012 347.743 329.953 326.041C329.896 325.945 329.852 325.861 329.795 325.765C326.264 319.797 322.789 313.149 319.994 306.906C318.74 303.815 317.724 300.765 317 297.654H320.381C320.625 298.239 320.883 298.816 321.137 299.395C323.964 306.658 326.867 311.457 331.064 317.18C331.968 318.482 332.891 319.769 333.852 321.026C333.864 321.01 333.876 320.993 333.889 320.977C333.93 321.031 333.958 321.073 334 321.127C348.232 302.655 355.992 279.683 356 256C356 198.488 311.228 151.864 256 151.864ZM256 197.684C286.928 197.684 312 223.793 312 256C312 288.207 286.928 314.316 256 314.316C225.072 314.316 200 288.207 200 256C200 254.994 200.024 253.994 200.072 253C201.572 222.188 226.039 197.684 256 197.684Z" fill="#13BF95"/>
<path d="M100 151.864C44.7715 151.864 0 198.487 0 256C0 313.512 44.7715 360.136 100 360.136C155.228 360.136 200 313.512 200 256C199.999 232.304 192.237 209.316 177.996 190.834C172.201 197.771 170.105 201.879 164 212.263H160.5C163.592 204.311 168.139 196.575 174.264 186.27C155.303 164.37 128.316 151.867 100 151.864ZM100 197.684C130.928 197.684 156 223.793 156 256C156 288.207 130.928 314.316 100 314.316C69.0721 314.316 44 288.207 44 256C44 223.793 69.0721 197.684 100 197.684Z" fill="#13BF95"/>
</svg>