<?xml version="1.0" encoding="UTF-8" standalone="no"?><!DOCTYPE svg PUBLIC "-//W3C//DTD SVG 1.1//EN" "http://www.w3.org/Graphics/SVG/1.1/DTD/svg11.dtd"><!-- Generated by graphviz version 2.40.1 (20161225.0304)
 --><!-- Title: finite_state_machine Pages: 1 --><svg xmlns="http://www.w3.org/2000/svg" xmlns:xlink="http://www.w3.org/1999/xlink" width="254pt" height="238pt" viewBox="0.00 0.00 253.51 238.40">
<g id="graph0" class="graph" transform="scale(1 1) rotate(0) translate(4 234.4)">
<title>finite_state_machine</title>
<polygon fill="#ffffff" stroke="transparent" points="-4,4 -4,-234.4 249.5087,-234.4 249.5087,4 -4,4"/>
<!-- FIXED -->
<g id="node1" class="node">
<title>FIXED</title>
<ellipse fill="none" stroke="#000000" cx="39.4617" cy="-18" rx="39.4235" ry="18"/>
<text text-anchor="middle" x="39.4617" y="-13.8" font-family="Times,serif" font-size="14.00" fill="#000000">FIXED</text>
</g>
<!-- OPEN -->
<g id="node2" class="node">
<title>OPEN</title>
<ellipse fill="none" stroke="#000000" cx="114.4617" cy="-212.4" rx="36.4955" ry="18"/>
<text text-anchor="middle" x="114.4617" y="-208.2" font-family="Times,serif" font-size="14.00" fill="#000000">OPEN</text>
</g>
<!-- OPEN&#45;&gt;FIXED -->
<g id="edge1" class="edge">
<title>OPEN-&gt;FIXED</title>
<path fill="none" stroke="#000000" d="M81.6076,-193.6242C58.5336,-178.3887 29.4985,-154.5807 16.1461,-124.8 4.5806,-99.0045 14.368,-67.0692 24.5751,-44.8725"/>
<polygon fill="#000000" stroke="#000000" points="79.7984,-196.6214 90.114,-199.0381 83.557,-190.7161 79.7984,-196.6214"/>
<polygon fill="#000000" stroke="#000000" points="27.8077,-46.2295 29.0662,-35.7097 21.5222,-43.1486 27.8077,-46.2295"/>
<text text-anchor="middle" x="38.6195" y="-111" font-family="Times,serif" font-size="14.00" fill="#000000">Fix &amp;</text>
<text text-anchor="middle" x="38.6195" y="-94.2" font-family="Times,serif" font-size="14.00" fill="#000000">Regress</text>
</g>
<!-- MUTED -->
<g id="node3" class="node">
<title>MUTED</title>
<ellipse fill="none" stroke="#000000" cx="114.4617" cy="-106.8" rx="45.2247" ry="18"/>
<text text-anchor="middle" x="114.4617" y="-102.6" font-family="Times,serif" font-size="14.00" fill="#000000">MUTED</text>
</g>
<!-- OPEN&#45;&gt;MUTED -->
<g id="edge2" class="edge">
<title>OPEN-&gt;MUTED</title>
<path fill="none" stroke="#000000" d="M114.4617,-183.9406C114.4617,-168.8515 114.4617,-150.3672 114.4617,-135.2756"/>
<polygon fill="#000000" stroke="#000000" points="110.9618,-184.0058 114.4617,-194.0059 117.9618,-184.0059 110.9618,-184.0058"/>
<polygon fill="#000000" stroke="#000000" points="117.9618,-134.9833 114.4617,-124.9833 110.9618,-134.9834 117.9618,-134.9833"/>
<text text-anchor="middle" x="137.0129" y="-163.8" font-family="Times,serif" font-size="14.00" fill="#000000">Mute &amp;</text>
<text text-anchor="middle" x="137.0129" y="-147" font-family="Times,serif" font-size="14.00" fill="#000000">Unmute</text>
</g>
<!-- REMOVED -->
<g id="node4" class="node">
<title>REMOVED</title>
<ellipse fill="none" stroke="#000000" cx="175.4617" cy="-18" rx="58.5482" ry="18"/>
<text text-anchor="middle" x="175.4617" y="-13.8" font-family="Times,serif" font-size="14.00" fill="#000000">REMOVED</text>
</g>
<!-- OPEN&#45;&gt;REMOVED -->
<g id="edge3" class="edge">
<title>OPEN-&gt;REMOVED</title>
<path fill="none" stroke="#000000" d="M147.9525,-193.2641C153.9252,-188.4659 159.4974,-182.8227 163.4617,-176.4 188.035,-136.5882 185.3103,-79.9836 180.6756,-46.324"/>
<polygon fill="#000000" stroke="#000000" points="145.7076,-190.5688 139.6731,-199.2771 149.8211,-196.2327 145.7076,-190.5688"/>
<polygon fill="#000000" stroke="#000000" points="184.1069,-45.6084 179.1358,-36.2522 177.1873,-46.6663 184.1069,-45.6084"/>
<text text-anchor="middle" x="214.9852" y="-111" font-family="Times,serif" font-size="14.00" fill="#000000">Remove &amp;</text>
<text text-anchor="middle" x="214.9852" y="-94.2" font-family="Times,serif" font-size="14.00" fill="#000000">Readd</text>
</g>
<!-- MUTED&#45;&gt;FIXED -->
<g id="edge4" class="edge">
<title>MUTED-&gt;FIXED</title>
<path fill="none" stroke="#000000" d="M100.001,-89.6785C88.7953,-76.411 73.1085,-57.8377 60.5109,-42.9222"/>
<polygon fill="#000000" stroke="#000000" points="63.0045,-40.4503 53.8781,-35.069 57.6567,-44.9671 63.0045,-40.4503"/>
<text text-anchor="middle" x="93.7983" y="-58.2" font-family="Times,serif" font-size="14.00" fill="#000000">Fix</text>
</g>
<!-- MUTED&#45;&gt;REMOVED -->
<g id="edge5" class="edge">
<title>MUTED-&gt;REMOVED</title>
<path fill="none" stroke="#000000" d="M119.1019,-88.6422C122.3895,-77.9417 127.5218,-64.4899 134.8053,-54 137.8198,-49.6585 141.4638,-45.492 145.317,-41.6321"/>
<polygon fill="#000000" stroke="#000000" points="147.9232,-43.9886 152.8743,-34.6217 143.1626,-38.8566 147.9232,-43.9886"/>
<text text-anchor="middle" x="158.7899" y="-58.2" font-family="Times,serif" font-size="14.00" fill="#000000">Remove</text>
</g>
</g>
</svg>